<svg width="211" height="29" viewBox="0 0 211 29" fill="none" xmlns="http://www.w3.org/2000/svg">
<g clip-path="url(#clip0_650_445)">
<mask id="mask0_650_445" style="mask-type:luminance" maskUnits="userSpaceOnUse" x="0" y="4" width="20" height="25">
<path d="M0 4.04688H19.6014V28.9994H0V4.04688Z" fill="white"/>
</mask>
<g mask="url(#mask0_650_445)">
<path d="M9.61462 27.3033L1.92488 27.3079L3.56285 16.403L11.114 16.3881C13.065 16.3909 14.4985 16.8001 15.3611 17.6539C16.2246 18.5077 16.7005 19.6647 16.6986 21.1091C16.6976 21.6541 16.5823 22.3982 16.3836 23.1208C16.1849 23.8425 15.7817 24.5057 15.2632 25.1446C14.7437 25.7836 14.041 26.2291 13.127 26.6783C12.2131 27.1275 11.0471 27.3052 9.61462 27.3033ZM5.15721 5.78265L13.0117 5.77613C14.4684 5.778 15.5627 6.16025 16.3032 6.87082C17.0427 7.58324 17.5147 8.34403 17.5127 9.43313C17.5118 10.499 17.2879 11.3695 16.843 12.0447C16.3981 12.719 15.7575 13.3924 15.1275 13.783C14.4965 14.1727 13.9179 14.4136 13.2259 14.555C12.5349 14.6963 11.8729 14.7084 11.3786 14.7075L3.81582 14.714L5.15721 5.78265ZM16.0531 26.8587C16.844 26.1742 17.4565 25.3334 17.8898 24.3383C18.323 23.3431 18.5401 22.2419 18.542 21.0347C18.543 20.4655 18.4819 19.9028 18.3589 19.3457C18.2367 18.7895 18.0148 18.2678 17.6949 17.7813C17.3741 17.2959 16.9554 16.8624 16.4369 16.4821C15.9193 16.1035 15.2777 15.8059 14.513 15.592L14.5411 15.4813C15.4541 15.1986 16.3662 14.7735 16.9593 14.3001C17.5534 13.8277 18.0284 13.3068 18.387 12.7386C18.7465 12.1694 18.9995 11.5964 19.1488 11.0152C19.298 10.4348 19.3727 9.8963 19.3736 9.39872C19.3746 8.49842 19.2147 7.71624 18.8958 7.05218C18.575 6.38904 18.1379 5.8431 17.5825 5.41527C17.0281 4.98837 16.3739 4.6675 15.6208 4.45359C14.8678 4.24061 14.0769 4.09273 13.2385 4.0918L5.39854 4.09366C3.95344 4.09552 3.50179 4.47033 3.30407 5.78544C3.30407 5.78544 0.839362 22.2177 0.0203772 27.6707C-0.120159 28.6035 0.482692 28.9997 1.32106 28.9988L9.62237 28.9932C10.9347 28.9858 12.1491 28.8332 13.2356 28.4556C14.3231 28.078 15.2613 27.546 16.0531 26.8587Z" fill="#EF526C"/>
</g>
<mask id="mask1_650_445" style="mask-type:luminance" maskUnits="userSpaceOnUse" x="37" y="4" width="21" height="25">
<path d="M37.9619 4.04688H57.5633V28.9994H37.9619V4.04688Z" fill="white"/>
</mask>
<g mask="url(#mask1_650_445)">
<path d="M51.1105 26.6363C50.1965 27.0845 49.0305 27.2631 47.598 27.2603L39.9093 27.265L41.5463 16.361L49.0974 16.3451C51.0475 16.3479 52.4819 16.7572 53.3455 17.611C54.2081 18.4648 54.684 19.6217 54.683 21.0671C54.682 21.6121 54.5657 22.3561 54.367 23.0778C54.1693 23.8005 53.7661 24.4627 53.2466 25.1017C52.7271 25.7415 52.0254 26.1861 51.1105 26.6363ZM43.1406 5.73968L50.9951 5.73317C52.4519 5.73503 53.5471 6.11728 54.2866 6.82785C55.0261 7.54027 55.4981 8.30106 55.4971 9.39016C55.4952 10.456 55.2723 11.3265 54.8274 12.0008C54.3816 12.6761 53.7409 13.3494 53.1109 13.74C52.4809 14.1297 51.9023 14.3706 51.2103 14.512C50.5183 14.6534 49.8563 14.6655 49.363 14.6655L41.8002 14.671L43.1406 5.73968ZM54.0365 26.8167C54.8274 26.1312 55.44 25.2905 55.8732 24.2962C56.3064 23.3001 56.5245 22.1989 56.5255 20.9917C56.5264 20.4225 56.4654 19.8598 56.3433 19.3027C56.2202 18.7466 55.9982 18.2239 55.6784 17.7384C55.3585 17.2529 54.9389 16.8195 54.4213 16.44C53.9028 16.0605 53.2612 15.7629 52.4965 15.549L52.5246 15.4383C53.4376 15.1556 54.3496 14.7306 54.9437 14.2572C55.5369 13.7847 56.0118 13.2639 56.3704 12.6947C56.73 12.1273 56.9829 11.5535 57.1332 10.9722C57.2815 10.3918 57.3561 9.85333 57.3571 9.35482C57.358 8.45545 57.1981 7.67327 56.8783 7.00921C56.5584 6.34608 56.1213 5.7992 55.5669 5.3723C55.0116 4.94541 54.3573 4.62454 53.6052 4.41062C52.8512 4.19671 52.0613 4.04976 51.2219 4.04883L43.3829 4.05069C41.9369 4.05162 41.4852 4.42736 41.2885 5.74247C41.2885 5.74247 38.8228 22.1748 38.0048 27.6277C37.8642 28.5596 38.4661 28.9568 39.3045 28.9549L47.6058 28.9502C48.9181 28.9428 50.1325 28.7903 51.22 28.4127C52.3065 28.0351 53.2457 27.5021 54.0365 26.8167Z" fill="#EF526C"/>
</g>
<mask id="mask2_650_445" style="mask-type:luminance" maskUnits="userSpaceOnUse" x="56" y="3" width="20" height="26">
<path d="M56.3232 3.80859H75.9246V28.9993H56.3232V3.80859Z" fill="white"/>
</mask>
<g mask="url(#mask2_650_445)">
<path d="M69.6368 26.6148C68.7229 27.064 67.5569 27.2416 66.1244 27.2398L58.4347 27.2444L60.0726 16.3395L67.6238 16.3237C69.5738 16.3265 71.0083 16.7366 71.8709 17.5904C72.7344 18.4442 73.2103 19.6012 73.2084 21.0456C73.2084 21.5906 73.0921 22.3346 72.8934 23.0564C72.6947 23.779 72.2925 24.4412 71.773 25.0802C71.2535 25.7201 70.5518 26.1656 69.6368 26.6148ZM61.667 5.71912L69.5215 5.71168C70.9782 5.71354 72.0734 6.0958 72.8129 6.80636C73.5525 7.51879 74.0245 8.27958 74.0235 9.36868C74.0225 10.4355 73.7977 11.3051 73.3528 11.9794C72.9079 12.6555 72.2673 13.3279 71.6373 13.7186C71.0063 14.1083 70.4277 14.3491 69.7357 14.4905C69.0446 14.6328 68.3827 14.644 67.8884 14.644L60.3266 14.6496L61.667 5.71912ZM72.5629 26.7952C73.3538 26.1098 73.9663 25.269 74.3995 24.2747C74.8328 23.2796 75.0509 22.1784 75.0518 20.9702C75.0528 20.402 74.9917 19.8384 74.8686 19.2822C74.7465 18.7251 74.5246 18.2033 74.2047 17.7169C73.8849 17.2314 73.4652 16.798 72.9477 16.4185C72.4291 16.0391 71.7875 15.7414 71.0228 15.5275L71.0509 15.4178C71.9639 15.1341 72.8759 14.7091 73.4701 14.2357C74.0632 13.7632 74.5381 13.2424 74.8968 12.6732C75.2563 12.1058 75.5093 11.532 75.6595 10.9507C75.8078 10.3713 75.8815 9.83185 75.8834 9.33426C75.8844 8.4349 75.7245 7.65179 75.4056 6.98865C75.0848 6.32459 74.6477 5.77865 74.0923 5.35082C73.5379 4.92485 72.8837 4.60398 72.1306 4.38914C71.3775 4.17615 70.5876 4.02827 69.7483 4.02734L61.9083 4.0292C60.4632 4.03106 60.0116 4.40588 59.8139 5.72098C59.8139 5.72098 57.3492 22.1533 56.5302 27.6062C56.3896 28.5381 56.9915 28.9353 57.8309 28.9343L66.1322 28.9288C67.4445 28.9213 68.6589 28.7697 69.7464 28.3912C70.8328 28.0136 71.771 27.4816 72.5629 26.7952Z" fill="#EF526C"/>
</g>
<mask id="mask3_650_445" style="mask-type:luminance" maskUnits="userSpaceOnUse" x="19" y="4" width="22" height="25">
<path d="M19.6016 4.04688H40.6916V28.9994H19.6016V4.04688Z" fill="white"/>
</mask>
<g mask="url(#mask3_650_445)">
<path d="M24.1259 28.5978C25.9054 29.1345 29.2443 29.0526 31.3407 28.5458C34.7514 27.7217 36.2934 25.7426 37.0959 23.8601C38.1175 21.4615 38.3375 19.2015 38.4761 18.2919C39.0566 14.4758 40.5143 4.70182 40.5589 4.41164C40.5948 4.16983 40.4678 4.05357 40.2226 4.05357L39.203 4.05171L39.1768 4.05078C38.9054 4.05078 38.7407 4.19029 38.7009 4.45164L36.6229 18.2937C36.3719 20.0097 36.118 21.0774 35.7429 22.279C35.3668 23.4816 34.8066 24.4647 34.0623 25.2264C33.3189 25.9872 32.3409 26.5461 31.1304 26.9014C29.5079 27.3795 26.4675 27.399 24.8179 26.9554C23.6946 26.6522 22.9008 26.0355 22.3803 25.2729C21.8599 24.5093 21.6001 23.5597 21.5303 22.3581C21.4586 21.1192 21.4993 20.3157 21.8008 18.3123L23.8807 4.46373C23.9204 4.19773 23.7818 4.07031 23.5095 4.07031L22.5025 4.07217C22.2049 4.07124 22.0663 4.21726 22.0295 4.4628C21.7562 6.28106 19.9476 18.3151 19.9476 18.3151C19.5725 20.8179 19.6346 22.4725 19.7945 23.5532C19.9554 24.6311 20.5669 27.5236 24.1259 28.5978Z" fill="#EF526C"/>
</g>
<mask id="mask4_650_445" style="mask-type:luminance" maskUnits="userSpaceOnUse" x="75" y="3" width="16" height="26">
<path d="M75.4277 3.80859H90.0667V28.9993H75.4277V3.80859Z" fill="white"/>
</mask>
<g mask="url(#mask4_650_445)">
<path d="M77.8166 28.5035C78.4834 28.7649 79.3237 28.8979 80.3395 28.8988L89.3493 28.8895C89.5848 28.8867 89.7021 28.7398 89.7369 28.5063C89.7369 28.5063 89.8436 27.8004 89.8794 27.5595C89.9143 27.3242 89.8135 27.1977 89.5916 27.1968L80.667 27.2117C79.3538 27.2098 78.4553 26.9085 77.9494 26.2779C77.4415 25.6483 77.3407 24.7377 77.5152 23.5268C77.5152 23.5268 79.6688 9.16109 80.384 4.4029C80.4257 4.12574 80.3714 4.00391 80.0516 4.00391L79.0174 4.00577C78.7693 4.00484 78.5755 4.14528 78.5357 4.41313C78.3787 5.46224 75.6727 23.4803 75.6727 23.4803C75.5477 24.2634 75.5234 24.987 75.6097 25.652C75.695 26.317 75.9179 26.8927 76.2765 27.3791C76.6332 27.8674 77.1478 28.2413 77.8166 28.5035Z" fill="#EF526C"/>
</g>
<mask id="mask5_650_445" style="mask-type:luminance" maskUnits="userSpaceOnUse" x="91" y="3" width="19" height="26">
<path d="M91.3076 3.80859H109.172V28.9993H91.3076V3.80859Z" fill="white"/>
</mask>
<g mask="url(#mask5_650_445)">
<path d="M99.5715 5.66955C99.5715 5.66955 106.754 5.65746 108.573 5.63979C108.837 5.637 108.939 5.49098 108.981 5.21382L109.106 4.39165C109.148 4.10891 109.019 3.96382 108.773 3.96289L99.6122 3.98707C98.5732 3.98521 97.73 4.09682 97.0128 4.3684C96.2946 4.6409 95.6995 5.02595 95.2304 5.52353C94.7593 6.02111 93.9055 6.92327 93.5236 9.46884C92.9973 12.9742 91.9564 19.9329 91.433 23.4207C91.1335 25.4156 91.589 26.7019 92.0455 27.3641C92.3848 27.8552 92.8984 28.2319 93.5662 28.5044C94.2331 28.7787 95.0918 28.881 96.1317 28.882L105.044 28.8894C105.34 28.8894 105.441 28.7564 105.486 28.4616C105.518 28.2505 105.615 27.6217 105.615 27.6217C105.666 27.2897 105.507 27.193 105.235 27.193H96.4177C95.0327 27.1921 94.1303 26.9093 93.699 26.2434C93.2667 25.5784 93.0923 24.72 93.2415 23.6755L94.3503 16.2936L104.094 16.2815C104.366 16.2825 104.586 16.1402 104.61 15.8732L104.743 14.9897C104.783 14.7293 104.679 14.5907 104.456 14.5907L94.6043 14.6046L95.4106 9.21308C95.6093 8.03004 95.9699 7.2088 96.6939 6.53637C97.3462 5.92997 98.2853 5.66769 99.5715 5.66955Z" fill="#EF526C"/>
</g>
<path d="M25.1212 18.4551C25.0281 18.4421 24.9322 18.4356 24.8343 18.4356C23.6712 18.4309 22.6138 19.3312 22.4713 20.4473C22.3395 21.4676 23.0228 22.3148 24.0298 22.4544C24.1229 22.4674 24.2188 22.4739 24.3177 22.4739C25.4798 22.4776 26.5391 21.5782 26.6797 20.4622C26.8115 19.441 26.1291 18.5946 25.1212 18.4551ZM25.0659 18.8243C25.882 18.9369 26.3986 19.6065 26.2949 20.4175C26.1776 21.3485 25.2908 22.1047 24.3196 22.1009C24.2392 22.1009 24.1607 22.0963 24.0851 22.0851C23.268 21.9726 22.7514 21.3029 22.8561 20.4929C22.9753 19.56 23.8622 18.8048 24.8333 18.8076C24.9108 18.8076 24.9893 18.8132 25.0659 18.8243Z" fill="#EF526C"/>
<path d="M27.4989 22.3349C27.4059 22.3219 27.3099 22.3154 27.212 22.3145C26.0499 22.3117 24.9925 23.211 24.8491 24.3262C24.7182 25.3474 25.3996 26.1937 26.4085 26.3332C26.5016 26.3463 26.5975 26.3537 26.6964 26.3537C27.8595 26.3574 28.9159 25.4553 29.0584 24.3411C29.1902 23.3199 28.5069 22.4744 27.4989 22.3349ZM27.4437 22.7032C28.2597 22.8167 28.7773 23.4863 28.6726 24.2955C28.5544 25.2283 27.6685 25.9835 26.6964 25.9808C26.6198 25.9808 26.5413 25.9752 26.4638 25.9649C25.6477 25.8524 25.1302 25.1818 25.2348 24.3718C25.354 23.4398 26.2409 22.6846 27.2101 22.6874C27.2905 22.6874 27.369 22.693 27.4437 22.7032Z" fill="#EF526C"/>
<path d="M32.9989 20.6455C32.9049 20.6325 32.8089 20.6259 32.711 20.625C31.548 20.6204 30.4906 21.5216 30.3481 22.6367C30.2172 23.6561 30.8996 24.5024 31.9075 24.6419C32.0006 24.655 32.0965 24.6624 32.1954 24.6624C33.3565 24.6671 34.4149 23.7677 34.5583 22.6516C34.6882 21.6313 34.0069 20.785 32.9989 20.6455ZM32.9436 21.0138C33.7587 21.1263 34.2763 21.796 34.1726 22.606C34.0534 23.538 33.1675 24.2941 32.1973 24.2904C32.1179 24.2904 32.0394 24.2839 31.9618 24.2736C31.1467 24.1611 30.6292 23.4915 30.7329 22.6823C30.8521 21.7495 31.7389 20.9943 32.7081 20.997C32.7905 20.998 32.87 21.0036 32.9436 21.0138Z" fill="#EF526C"/>
<path d="M34.5636 13.5107C34.4705 13.4977 34.3746 13.4902 34.2757 13.4902C33.1136 13.4865 32.0562 14.3868 31.9138 15.501C31.7819 16.5222 32.4633 17.3686 33.4713 17.5081C33.5653 17.5211 33.6612 17.5286 33.7601 17.5286C34.9212 17.5332 35.9815 16.632 36.123 15.5178C36.2529 14.4975 35.5716 13.6493 34.5636 13.5107ZM34.5083 13.879C35.3244 13.9915 35.841 14.6621 35.7373 15.4722C35.62 16.4041 34.7332 17.1603 33.7611 17.1565C33.6835 17.1565 33.605 17.151 33.5265 17.1398C32.7104 17.0273 32.1948 16.3576 32.2995 15.5466C32.4177 14.6147 33.3036 13.8595 34.2748 13.8623C34.3542 13.8632 34.4337 13.8688 34.5083 13.879Z" fill="#EF526C"/>
<path d="M32.9329 3.02455C32.8534 3.01339 32.771 3.00781 32.6867 3.00781C31.7378 3.01153 30.8791 3.75372 30.7706 4.66425C30.6698 5.49386 31.2261 6.17839 32.0422 6.29185C32.1236 6.30208 32.206 6.30859 32.2913 6.30766C33.2401 6.30487 34.0998 5.56176 34.2074 4.65123C34.3063 3.82254 33.7499 3.13709 32.9329 3.02455ZM32.8776 3.39286C33.4979 3.47842 33.8953 3.99089 33.8217 4.60938C33.7354 5.33761 33.0482 5.93285 32.2903 5.93564C32.2254 5.93564 32.1604 5.93192 32.0984 5.92262C31.4771 5.83705 31.0817 5.32552 31.1563 4.70703C31.2435 3.97879 31.9297 3.38356 32.6886 3.38077C32.7507 3.37984 32.8146 3.38449 32.8776 3.39286Z" fill="#EF526C"/>
<path d="M36.0699 0.0111805C36.0156 0.00374001 35.9594 1.97714e-05 35.9022 1.97714e-05C35.2306 -0.00370047 34.618 0.518063 34.5366 1.16259C34.461 1.75225 34.8555 2.24239 35.438 2.32331C35.4923 2.32982 35.5475 2.33447 35.6037 2.33447C36.2764 2.33633 36.8879 1.8155 36.9703 1.17096C37.0449 0.581307 36.6514 0.0920957 36.0699 0.0111805ZM36.0147 0.380414C36.3936 0.432497 36.633 0.745928 36.5846 1.12632C36.5274 1.58019 36.0786 1.96338 35.6066 1.96245C35.5679 1.96152 35.5301 1.95966 35.4932 1.95407C35.1133 1.90106 34.8729 1.58856 34.9214 1.20817C34.9795 0.752438 35.4273 0.370184 35.9003 0.372974C35.941 0.372974 35.9788 0.374834 36.0147 0.380414Z" fill="#EF526C"/>
<path d="M35.6445 6.25978C35.5515 6.24676 35.4565 6.24025 35.3586 6.24025C34.1955 6.2356 33.1381 7.13683 32.9957 8.2529C32.954 8.57005 33.0005 8.8686 33.1032 9.13646C33.0751 9.13181 33.047 9.12809 33.0179 9.12437C32.9453 9.11414 32.8716 9.10577 32.7941 9.10577C31.632 9.10112 30.5746 10.0023 30.4321 11.1175C30.3012 12.1368 30.9826 12.9832 31.9896 13.1227C32.0836 13.1357 32.1796 13.1432 32.2784 13.1432C33.4405 13.1469 34.4999 12.2466 34.6414 11.1324C34.6821 10.8134 34.6365 10.5157 34.5328 10.2469C34.5648 10.2516 34.5978 10.2562 34.6317 10.2618C34.6995 10.2711 34.7703 10.2786 34.843 10.2786C36.0051 10.2823 37.0644 9.38199 37.2049 8.26685C37.3348 7.24658 36.6525 6.39929 35.6445 6.25978ZM35.5893 6.62902C36.4053 6.74155 36.9229 7.4112 36.8202 8.22221C36.7019 9.15413 35.8161 9.90934 34.8439 9.90562C34.8003 9.90562 34.7538 9.9019 34.6869 9.8926C34.6549 9.88795 34.6239 9.8833 34.592 9.87865C34.591 9.87865 34.589 9.87865 34.5881 9.87772C34.4534 9.85911 34.3177 9.91027 34.2324 10.0107C34.1451 10.113 34.1209 10.2525 34.1684 10.3762C34.2576 10.6069 34.2866 10.8459 34.2556 11.0868C34.1384 12.0187 33.2515 12.7739 32.2784 12.7711C32.2009 12.7711 32.1224 12.7646 32.0449 12.7544C31.2298 12.6419 30.7132 11.9722 30.8169 11.1631C30.9361 10.2293 31.8219 9.47407 32.7941 9.47872C32.8522 9.47872 32.9123 9.48523 32.9627 9.49267C32.9898 9.49639 33.016 9.50011 33.0422 9.50476C33.0441 9.50476 33.0461 9.50476 33.048 9.50476C33.1817 9.52336 33.3165 9.47407 33.4027 9.37269C33.49 9.27132 33.5152 9.13181 33.4677 9.00811C33.3785 8.77652 33.3494 8.5375 33.3814 8.29754C33.4996 7.36469 34.3865 6.60856 35.3576 6.61228C35.4361 6.61228 35.5127 6.61786 35.5893 6.62902Z" fill="#EF526C"/>
<path d="M28.9225 0.00474332L26.606 0.00195312L27.0771 6.48168C27.078 6.64072 27.081 6.76349 27.0877 6.83603C26.7175 7.19131 26.4558 7.65076 26.3899 8.15951C26.2881 8.94262 26.6749 9.61691 27.3126 9.95359L27.616 14.4448C27.5685 14.4774 27.519 14.5081 27.4754 14.5462C27.4415 13.672 26.8038 12.9837 25.9024 12.8582C25.8084 12.8451 25.7124 12.8386 25.6145 12.8386C24.4515 12.834 23.3941 13.7352 23.2526 14.8494C23.1208 15.8706 23.805 16.7179 24.813 16.8565C24.906 16.8695 25.002 16.876 25.0999 16.877C25.6804 16.8779 26.2339 16.6537 26.6613 16.2901C26.6904 17.0332 27.1566 17.6405 27.8486 17.8833L27.866 18.1446C27.458 18.5046 27.1701 18.9882 27.1003 19.5286C26.9695 20.5498 27.6509 21.3952 28.6588 21.5347C28.7528 21.5477 28.8488 21.5542 28.9486 21.5552C30.1117 21.5589 31.1681 20.6586 31.3116 19.5434C31.423 18.6655 30.9307 17.9205 30.1485 17.6387L30.1301 17.3597C30.5314 17.0025 30.8153 16.5235 30.8841 15.9869C30.9879 15.1842 30.5818 14.4932 29.914 14.1658L29.6135 9.73317C30.1379 9.36486 30.5197 8.80776 30.5992 8.17439C30.7145 7.27502 30.1931 6.51888 29.379 6.25567L28.9225 0.00474332ZM28.5609 0.376767L28.9922 6.28172C29.0029 6.43146 29.1066 6.56073 29.2559 6.6091C29.9178 6.82301 30.3036 7.43406 30.2144 8.12881C30.1505 8.63198 29.8481 9.10724 29.3848 9.43276C29.2772 9.50716 29.2181 9.62993 29.2268 9.75735L29.5272 14.19C29.535 14.3212 29.6154 14.4374 29.7376 14.4979C30.2871 14.7676 30.5788 15.32 30.4994 15.9413C30.4451 16.3645 30.2202 16.7719 29.8665 17.0871C29.7802 17.1625 29.7356 17.2713 29.7424 17.3838L29.7608 17.6629C29.7715 17.8089 29.8694 17.9363 30.0128 17.9874C30.6554 18.219 31.014 18.8115 30.9258 19.4979C30.8066 20.4298 29.9198 21.1859 28.9496 21.1831C28.8692 21.1822 28.7897 21.1766 28.7141 21.1664C27.899 21.0539 27.3824 20.3833 27.4851 19.5741C27.5404 19.1463 27.7691 18.7371 28.1287 18.419C28.2149 18.3427 28.2615 18.2339 28.2537 18.1214L28.2363 17.8591C28.2256 17.7112 28.1258 17.5838 27.9814 17.5326C27.4289 17.3392 27.0722 16.8584 27.0499 16.2771C27.0441 16.1329 26.953 16.0046 26.8144 15.9478C26.7834 15.9348 26.7505 15.9264 26.7175 15.9218C26.606 15.906 26.4907 15.9385 26.4044 16.012C26.0294 16.3301 25.567 16.5049 25.1018 16.504C25.0214 16.504 24.9438 16.4984 24.8682 16.4882C24.0512 16.3757 23.5336 15.7051 23.6373 14.895C23.7566 13.9621 24.6424 13.2069 25.6145 13.2107C25.6911 13.2107 25.7696 13.2162 25.8471 13.2265C26.5615 13.326 27.0606 13.8617 27.0877 14.5592C27.0926 14.7043 27.1847 14.8327 27.3242 14.8894C27.3552 14.9015 27.3872 14.9099 27.4202 14.9145C27.5326 14.9303 27.6479 14.8978 27.7352 14.8225C27.7487 14.8104 27.773 14.7946 27.7991 14.7769L27.8428 14.7471C27.9513 14.6727 28.0124 14.549 28.0036 14.4207L27.7003 9.92941C27.6916 9.80199 27.616 9.68852 27.4997 9.62714C26.9753 9.35091 26.6971 8.8059 26.7747 8.20601C26.8261 7.80608 27.0354 7.4136 27.362 7.09924C27.4425 7.02204 27.4841 6.91416 27.4745 6.80441C27.4706 6.76535 27.4667 6.67699 27.4657 6.48075C27.4657 6.47238 27.4648 6.46401 27.4648 6.45564L27.0218 0.374907L28.5609 0.376767Z" fill="#EF526C"/>
<mask id="mask6_650_445" style="mask-type:luminance" maskUnits="userSpaceOnUse" x="107" y="4" width="29" height="25">
<path d="M107.188 4.04688H135.473V28.9994H107.188V4.04688Z" fill="white"/>
</mask>
<g mask="url(#mask6_650_445)">
<path d="M134.976 4.64044C134.657 4.32236 134.105 4.15402 133.318 4.15309L131.743 4.14844C130.981 4.14751 130.403 4.27679 130.009 4.53535C129.616 4.7939 129.221 5.24126 128.828 5.87928L121.257 18.104L116.962 5.8365C116.766 5.22266 116.528 4.79204 116.245 4.54465C115.962 4.29539 115.477 4.17169 114.789 4.16983L113.165 4.17262C112.306 4.17169 111.678 4.3605 111.284 4.73717C110.89 5.11384 110.806 5.77419 110.682 6.67076L107.433 28.2835C107.383 28.6137 107.427 28.8155 107.562 28.8862C107.696 28.9569 107.899 28.9922 108.17 28.9922L112.111 28.9987C112.406 28.9987 112.616 28.9643 112.738 28.8936C112.861 28.822 112.956 28.7355 113.005 28.4035L114.993 15.1148L117.692 22.2846C118.193 23.5048 118.882 23.8434 119.496 23.8443L121.451 23.8471C122.511 23.8369 123.051 23.1858 123.704 22.292L128.383 15.098L128.357 15.2757L126.407 28.2649C126.356 28.5951 126.386 28.7643 126.536 28.8666C126.66 28.9531 126.872 28.9736 127.143 28.9736L131.062 28.9699C131.382 28.9689 131.603 28.9336 131.726 28.8638C131.849 28.7932 131.935 28.5932 131.985 28.2621L135.283 6.29595C135.407 5.4003 135.294 4.96038 134.976 4.64044Z" fill="#99CA4E"/>
</g>
<mask id="mask7_650_445" style="mask-type:luminance" maskUnits="userSpaceOnUse" x="132" y="4" width="24" height="25">
<path d="M132.991 4.04688H155.57V28.9994H132.991V4.04688Z" fill="white"/>
</mask>
<g mask="url(#mask7_650_445)">
<path d="M142.934 19.4077L147.078 9.85696L148.283 19.4133L142.934 19.4077ZM151.156 6.07534C151.082 5.64937 150.985 5.30804 150.863 5.04855C150.739 4.78813 150.579 4.58817 150.383 4.44587C150.185 4.30357 149.954 4.21522 149.682 4.17987C149.411 4.14453 149.08 4.12593 148.687 4.125L146.737 4.14081C146.024 4.16406 145.438 4.27567 145.019 4.51097C144.601 4.74535 144.206 5.26432 143.837 6.06696L133.125 28.2507C133.052 28.4395 133.039 28.6042 133.087 28.7465C133.137 28.8878 133.285 28.9576 133.53 28.9585L137.868 28.9576C138.214 28.9576 138.453 28.9055 138.588 28.7986C138.722 28.6935 138.852 28.5223 138.975 28.2861L141.047 23.7948L148.942 23.8041L149.684 28.3735C149.733 28.6339 149.837 28.793 149.997 28.8525C150.157 28.912 150.371 28.9418 150.643 28.9409L154.819 28.9381C155.091 28.939 155.256 28.8562 155.319 28.6907C155.38 28.526 155.398 28.3726 155.376 28.2312" fill="#99CA4E"/>
</g>
<mask id="mask8_650_445" style="mask-type:luminance" maskUnits="userSpaceOnUse" x="185" y="4" width="23" height="25">
<path d="M185.345 4.04688H207.924V28.9994H185.345V4.04688Z" fill="white"/>
</mask>
<g mask="url(#mask8_650_445)">
<path d="M195.388 19.3355L199.532 9.78469L200.737 19.342L195.388 19.3355ZM207.829 28.1589L203.61 6.00307C203.535 5.57803 203.438 5.2367 203.317 4.97628C203.192 4.7168 203.032 4.5159 202.836 4.3736C202.639 4.23131 202.407 4.14295 202.136 4.10761C201.865 4.07227 201.533 4.05366 201.14 4.05273L199.19 4.06855C198.478 4.0918 197.891 4.2034 197.472 4.43871C197.054 4.67401 196.66 5.19299 196.291 5.9947L185.579 28.1785C185.505 28.3682 185.492 28.5328 185.541 28.6742C185.59 28.8165 185.738 28.8863 185.983 28.8872L190.322 28.8853C190.667 28.8853 190.906 28.8323 191.042 28.7263C191.176 28.6212 191.305 28.4501 191.429 28.2138L193.501 23.7226L201.395 23.7319L202.137 28.3012C202.186 28.5617 202.291 28.7207 202.45 28.7793C202.61 28.8398 202.824 28.8695 203.096 28.8695L207.273 28.8658C207.544 28.8667 207.71 28.7839 207.772 28.6184C207.834 28.4538 207.851 28.3003 207.829 28.1589Z" fill="#99CA4E"/>
</g>
<mask id="mask9_650_445" style="mask-type:luminance" maskUnits="userSpaceOnUse" x="156" y="4" width="26" height="25">
<path d="M156.314 4.04688H181.374V28.9994H156.314V4.04688Z" fill="white"/>
</mask>
<g mask="url(#mask9_650_445)">
<path d="M180.373 4.08789L176.625 4.09719C176.28 4.09533 176.046 4.14462 175.924 4.25065C175.801 4.35575 175.715 4.55013 175.664 4.8338L173.286 20.6746L173.271 20.7704L166.327 5.68666C166.154 5.35556 166.001 5.08398 165.868 4.87193C165.731 4.65895 165.579 4.49433 165.407 4.37621C165.234 4.25809 165.031 4.1809 164.799 4.14462C164.565 4.10928 164.35 4.10835 163.98 4.10835L162.486 4.11021C161.602 4.10835 160.961 4.29064 160.568 4.65616C160.174 5.02167 159.915 5.66341 159.791 6.58417L156.543 28.1922C156.494 28.475 156.537 28.6703 156.672 28.7763C156.806 28.8833 157.01 28.9354 157.28 28.9372L161.195 28.9354C161.538 28.9354 161.766 28.8889 161.876 28.7949C161.986 28.7001 162.066 28.4992 162.116 28.1932L164.508 12.2668L171.388 27.3533C171.535 27.6835 171.675 27.9495 171.811 28.1495C171.945 28.3504 172.105 28.5094 172.291 28.6284C172.474 28.7466 172.682 28.8238 172.916 28.8591C173.149 28.8944 173.386 28.9158 173.754 28.9168L175.403 28.914C176.338 28.914 176.912 28.6982 177.269 28.2629C177.626 27.8267 177.866 27.2315 177.99 26.4763L181.229 4.92494C181.303 4.42922 180.914 4.08882 180.373 4.08789Z" fill="#99CA4E"/>
</g>
<mask id="mask10_650_445" style="mask-type:luminance" maskUnits="userSpaceOnUse" x="178" y="4" width="11" height="25">
<path d="M178.646 4.04688H188.074V28.9994H178.646V4.04688Z" fill="white"/>
</mask>
<g mask="url(#mask10_650_445)">
<path d="M187.865 4.22912C187.772 4.1296 187.545 4.08775 187.2 4.08682L183.32 4.08403C183.025 4.08217 182.804 4.13611 182.656 4.24214C182.509 4.34817 182.405 4.53418 182.356 4.81878L178.855 28.1707C178.804 28.4535 178.851 28.6423 178.986 28.7483C179.121 28.8543 179.336 28.9073 179.631 28.9083L183.502 28.9017C183.931 28.9027 184.356 28.6757 184.434 28.1577L187.936 4.83273C187.987 4.52581 187.985 4.36026 187.865 4.22912Z" fill="#99CA4E"/>
</g>
<mask id="mask11_650_445" style="mask-type:luminance" maskUnits="userSpaceOnUse" x="205" y="4" width="6" height="6">
<path d="M205.194 4.04688H211V9.76116H205.194V4.04688Z" fill="white"/>
</mask>
<g mask="url(#mask11_650_445)">
<path d="M208.454 4.0528C208.324 4.05187 208.191 4.06117 208.056 4.07791C206.46 4.2881 205.188 5.72039 205.216 7.27824C205.241 8.70403 206.348 9.74104 207.76 9.74569C207.891 9.74569 208.025 9.73732 208.16 9.71965C209.758 9.50946 211.028 8.07531 211 6.51839C210.973 5.0926 209.867 4.05745 208.454 4.0528ZM208.452 4.50109C209.637 4.50481 210.511 5.35674 210.531 6.52676C210.557 7.86232 209.463 9.09465 208.095 9.27508C207.986 9.28996 207.875 9.2974 207.762 9.29647C206.579 9.29275 205.705 8.44082 205.683 7.2708C205.659 5.93524 206.752 4.70198 208.118 4.52248C208.232 4.5076 208.345 4.50016 208.452 4.50109Z" fill="#99CA4E"/>
</g>
<path d="M207.792 5.75409L207.656 6.64695H208.304C208.409 6.64974 208.502 6.63579 208.579 6.60603C208.656 6.57719 208.72 6.5372 208.769 6.48698C208.817 6.43769 208.854 6.38095 208.878 6.31585C208.9 6.25167 208.912 6.18471 208.912 6.11496C208.912 6.07589 208.906 6.03497 208.893 5.99219C208.88 5.94847 208.856 5.90848 208.823 5.87314C208.792 5.83873 208.748 5.81176 208.691 5.79129C208.634 5.7699 208.561 5.75781 208.471 5.75781L207.792 5.75409ZM208.571 5.37091C208.814 5.37091 209.003 5.43601 209.137 5.56436C209.274 5.69364 209.343 5.86291 209.343 6.07031C209.343 6.17727 209.326 6.27307 209.296 6.35677C209.267 6.44141 209.227 6.51767 209.176 6.58371C209.124 6.64881 209.065 6.70461 208.998 6.75112C208.93 6.79855 208.857 6.83575 208.781 6.86272V6.88132C208.886 6.91388 208.956 6.96503 208.99 7.03385C209.026 7.10361 209.052 7.18545 209.068 7.27939L209.172 8.13132C209.174 8.14621 209.173 8.16388 209.168 8.18341C209.163 8.20387 209.14 8.21317 209.102 8.21317H208.796C208.783 8.21317 208.768 8.21038 208.754 8.20573C208.738 8.20108 208.725 8.18527 208.719 8.15737L208.629 7.391C208.608 7.24033 208.554 7.13802 208.467 7.08594C208.381 7.03478 208.271 7.00781 208.137 7.00781H207.598L207.428 8.12388C207.422 8.16109 207.411 8.18527 207.397 8.19457C207.383 8.2048 207.359 8.20759 207.323 8.20573H207.079C207.048 8.20573 207.023 8.20108 207.009 8.19085C206.993 8.18155 206.988 8.15737 206.993 8.12016L207.377 5.58668C207.392 5.50763 207.418 5.45182 207.455 5.41927C207.491 5.38486 207.549 5.36719 207.629 5.36719L208.571 5.37091Z" fill="#99CA4E"/>
</g>
<defs>
<clipPath id="clip0_650_445">
<rect width="211" height="29" fill="white"/>
</clipPath>
</defs>
</svg>
