<svg width="214" height="116" viewBox="0 0 214 116" fill="none" xmlns="http://www.w3.org/2000/svg">
<g clip-path="url(#clip0_232_604)">
<path d="M18.8515 54.428L3.77545 54.4167L7.01715 32.6641L21.8223 32.6537C25.6467 32.6641 28.457 33.484 30.1459 35.1909C31.8353 36.8958 32.7669 39.2054 32.7586 42.0884C32.7552 43.1758 32.5261 44.6603 32.135 46.1006C31.7434 47.5404 30.9515 48.8611 29.9323 50.1356C28.9113 51.4097 27.5337 52.2966 25.7401 53.1896C23.9456 54.0841 21.6593 54.4357 18.8515 54.428ZM10.1747 11.4788L25.5738 11.4859C28.4292 11.4931 30.5745 12.2583 32.0226 13.6801C33.4713 15.102 34.3941 16.6211 34.3878 18.7944C34.3829 20.9216 33.9417 22.6574 33.068 24.0023C32.1919 25.348 30.9344 26.6886 29.6979 27.4663C28.4609 28.242 27.326 28.7218 25.9683 29.0021C24.6126 29.2823 23.3151 29.3042 22.3471 29.3013L7.51968 29.2947L10.1747 11.4788ZM31.4763 53.5583C33.0281 52.1935 34.2311 50.518 35.0839 48.5342C35.9361 46.5495 36.3662 44.3534 36.3725 41.944C36.3759 40.8087 36.2577 39.6862 36.0183 38.5741C35.7795 37.464 35.3461 36.4217 34.7205 35.4507C34.094 34.4812 33.2728 33.6156 32.2586 32.8561C31.2443 32.0984 29.9868 31.5027 28.4881 31.0732L28.5445 30.8538C30.3356 30.2918 32.1243 29.4462 33.2894 28.5028C34.4534 27.5617 35.3874 26.5242 36.0922 25.3908C36.7986 24.2578 37.2967 23.1144 37.591 21.9553C37.8853 20.7981 38.0322 19.7231 38.0356 18.7303C38.04 16.9347 37.7297 15.3736 37.1046 14.0483C36.478 12.7239 35.6228 11.6327 34.5361 10.7786C33.4494 9.92543 32.1681 9.28414 30.6922 8.85467C29.2163 8.42665 27.6669 8.12927 26.0232 8.12594L10.6524 8.1084C7.81881 8.1084 6.93251 8.85515 6.54141 11.4788C6.54141 11.4788 1.66134 44.257 0.0404897 55.134C-0.236787 56.9947 0.942367 57.7875 2.58754 57.7875L18.8618 57.7994C21.4346 57.788 23.8162 57.4868 25.9483 56.7363C28.0804 55.9848 29.9217 54.9264 31.4763 53.5583Z" fill="#F0536C"/>
<path d="M100.209 53.2077C98.4152 54.1007 96.1283 54.4528 93.3201 54.4442L78.245 54.4333L81.4862 32.6812L96.2909 32.6708C100.115 32.6817 102.925 33.5021 104.616 35.2074C106.305 36.9133 107.236 39.223 107.229 42.106C107.224 43.1928 106.995 44.6769 106.605 46.1168C106.213 47.558 105.42 48.8791 104.401 50.1526C103.38 51.4277 102.003 52.3127 100.209 53.2077ZM84.6437 11.4949L100.043 11.5025C102.898 11.5106 105.044 12.2754 106.492 13.6963C107.94 15.1185 108.863 16.6382 108.857 18.811C108.852 20.9383 108.41 22.675 107.537 24.0189C106.661 25.3651 105.404 26.7052 104.166 27.4838C102.93 28.2596 101.795 28.7379 100.438 29.0187C99.0827 29.2994 97.784 29.3212 96.8163 29.3194L81.9889 29.3103L84.6437 11.4949ZM105.946 53.5753C107.496 52.2096 108.7 50.5351 109.553 48.5508C110.405 46.567 110.835 44.37 110.841 41.9611C110.845 40.8263 110.726 39.7018 110.488 38.5907C110.249 37.481 109.816 36.4378 109.189 35.4668C108.563 34.4978 107.742 33.6327 106.728 32.8731C105.713 32.1154 104.456 31.5197 102.957 31.0908L103.013 30.8708C104.805 30.3079 106.594 29.4628 107.758 28.5194C108.923 27.5788 109.857 26.5404 110.562 25.4074C111.267 24.2753 111.766 23.131 112.06 21.9709C112.354 20.8152 112.501 19.7402 112.504 18.7464C112.509 16.9512 112.198 15.3898 111.573 14.0653C110.947 12.7409 110.092 11.6493 109.005 10.7956C107.919 9.943 106.637 9.29977 105.161 8.87175C103.685 8.44277 102.136 8.14684 100.493 8.14254L85.1223 8.125C82.2879 8.12451 81.4018 8.87127 81.0105 11.4959C81.0105 11.4959 76.1306 44.2731 74.5103 55.1506C74.2327 57.0099 75.412 57.8041 77.0571 57.8036L93.3308 57.8155C95.9046 57.8036 98.2853 57.5034 100.418 56.7528C102.55 56.0018 104.391 54.942 105.946 53.5753Z" fill="#F0536C"/>
<path d="M136.531 53.2136C134.737 54.1076 132.451 54.4587 129.643 54.4516L114.566 54.4401L117.808 32.6877L132.613 32.6777C136.438 32.6881 139.247 33.5089 140.938 35.2148C142.627 36.9207 143.558 39.2303 143.55 42.1128C143.546 43.1998 143.318 44.6843 142.926 46.1236C142.535 47.5639 141.742 48.8855 140.724 50.1586C139.702 51.4336 138.325 52.3205 136.531 53.2136ZM120.966 11.5023L136.365 11.5089C139.22 11.5166 141.366 12.2827 142.814 13.7022C144.262 15.1259 145.186 16.6455 145.179 18.8184C145.174 20.9456 144.733 22.6814 143.859 24.0253C142.983 25.3725 141.727 26.7121 140.49 27.4902C139.252 28.2655 138.117 28.7452 136.76 29.0251C135.404 29.3067 134.106 29.3282 133.137 29.3253L118.311 29.3172L120.966 11.5023ZM142.268 53.5812C143.819 52.2175 145.022 50.5415 145.875 48.5587C146.727 46.574 147.157 44.3769 147.163 41.9675C147.168 40.8326 147.049 39.7092 146.81 38.5985C146.57 37.4879 146.138 36.4447 145.512 35.4737C144.885 34.5046 144.065 33.6401 143.05 32.8805C142.036 32.1224 140.779 31.5266 139.28 31.0977L139.336 30.8773C141.127 30.3157 142.915 29.4702 144.081 28.5273C145.245 27.5861 146.179 26.5468 146.883 25.4138C147.589 24.2818 148.088 23.1374 148.382 21.9783C148.676 20.8226 148.822 19.7466 148.827 18.7533C148.832 16.9586 148.521 15.3976 147.896 14.0727C147.27 12.7469 146.414 11.6571 145.328 10.8025C144.241 9.94985 142.959 9.3071 141.483 8.87867C140.008 8.45017 138.459 8.15375 136.815 8.14994L121.444 8.13281C118.61 8.13233 117.724 8.87769 117.333 11.5008C117.333 11.5008 112.452 44.2805 110.831 55.158C110.555 57.0177 111.733 57.811 113.378 57.8106L129.653 57.8224C132.226 57.8115 134.608 57.5103 136.74 56.7588C138.872 56.0087 140.713 54.9489 142.268 53.5812Z" fill="#F0536C"/>
<path d="M47.2986 57.0504C50.7846 58.1258 57.3317 57.9715 61.4437 56.9663C68.1318 55.3303 71.1614 51.3851 72.7391 47.6318C74.7499 42.8491 75.1865 38.34 75.4613 36.5254C76.6108 28.9138 79.4971 9.41771 79.5837 8.83722C79.6554 8.35505 79.4062 8.12416 78.9269 8.12278L76.9268 8.11612L76.8771 8.11515C76.3424 8.11425 76.0201 8.39166 75.9427 8.91273L71.8281 36.5254C71.3311 39.9466 70.8302 42.0767 70.0913 44.4737C69.3514 46.8722 68.2501 48.8308 66.7883 50.3495C65.3285 51.8663 63.4108 52.9779 61.0355 53.6843C57.8522 54.6329 51.8917 54.6648 48.6588 53.774C46.4581 53.167 44.9034 51.9347 43.8852 50.4108C42.8676 48.8863 42.3607 46.9919 42.2274 44.5944C42.0902 42.1204 42.1724 40.5185 42.7679 36.5225L46.8852 8.89754C46.9645 8.36691 46.6935 8.11231 46.1584 8.11231H44.1849C43.6011 8.11134 43.3297 8.40165 43.2568 8.89089C42.7168 12.5169 39.1355 36.5225 39.1355 36.5225C38.3918 41.5142 38.5095 44.8162 38.8213 46.9734C39.1321 49.1249 40.3235 54.8984 47.2986 57.0504Z" fill="#F0536C"/>
<path d="M152.561 57.0009C153.87 57.5253 155.516 57.7928 157.508 57.7976L175.172 57.8023C175.634 57.7976 175.864 57.504 175.933 57.0385C175.933 57.0385 176.143 55.6304 176.215 55.1506C176.284 54.6818 176.087 54.4276 175.651 54.4267L158.154 54.4314C155.581 54.4247 153.818 53.8205 152.829 52.5617C151.836 51.3047 151.639 49.4863 151.986 47.0716C151.986 47.0716 156.25 18.4154 157.664 8.92362C157.747 8.37157 157.642 8.12792 157.014 8.12598L154.987 8.1284C154.501 8.12646 154.121 8.40582 154.041 8.9402C153.73 11.0309 148.374 46.9752 148.374 46.9752C148.127 48.5357 148.077 49.9798 148.244 51.3056C148.41 52.6339 148.844 53.7821 149.547 54.7549C150.245 55.7283 151.252 56.4769 152.561 57.0009Z" fill="#F0536C"/>
<path d="M195.278 11.5025C195.278 11.5025 209.36 11.4973 212.925 11.4674C213.445 11.4631 213.645 11.1714 213.727 10.618L213.975 8.97859C214.058 8.41475 213.807 8.12499 213.323 8.12305L195.363 8.14683C193.325 8.1392 191.671 8.35962 190.265 8.89975C188.856 9.44086 187.688 10.208 186.767 11.1994C185.841 12.1918 184.167 13.9879 183.41 19.0671C182.367 26.0596 180.308 39.9388 179.271 46.8967C178.678 50.8771 179.568 53.4437 180.462 54.7662C181.124 55.7486 182.13 56.5006 183.439 57.0469C184.747 57.5956 186.429 57.8018 188.467 57.8065L205.94 57.8445C206.522 57.8455 206.721 57.5809 206.808 56.9932C206.871 56.5704 207.065 55.3178 207.065 55.3178C207.164 54.6556 206.854 54.4622 206.321 54.4618L189.034 54.4366C186.317 54.4304 184.55 53.866 183.706 52.5359C182.859 51.2082 182.521 49.4947 182.817 47.4107L185.011 32.6864L204.113 32.6874C204.648 32.6897 205.08 32.4075 205.128 31.8755L205.391 30.1126C205.469 29.592 205.266 29.3156 204.83 29.3141L185.513 29.3155L187.11 18.5611C187.504 16.2026 188.214 14.5632 189.634 13.2236C190.915 12.016 192.756 11.4963 195.278 11.5025Z" fill="#F0536C"/>
<path d="M49.2786 36.8134C49.0957 36.7873 48.9089 36.774 48.7158 36.7725C46.4348 36.7616 44.3587 38.5549 44.0765 40.7804C43.8153 42.8164 45.1525 44.5086 47.127 44.7893C47.3094 44.815 47.4977 44.8282 47.6909 44.8297C49.9703 44.8397 52.049 43.0473 52.3286 40.8209C52.5894 38.7853 51.2541 37.0951 49.2786 36.8134ZM49.1696 37.5492C50.7691 37.7763 51.7804 39.114 51.5732 40.7311C51.3397 42.5894 49.5997 44.0948 47.6952 44.0867C47.5381 44.0853 47.3838 44.0743 47.2364 44.0535C45.6356 43.8264 44.6242 42.4882 44.8315 40.8717C45.0674 39.0124 46.8084 37.5065 48.7119 37.5155C48.8651 37.5164 49.0188 37.5279 49.1696 37.5492Z" fill="#F0536C"/>
<path d="M53.9284 44.5585C53.746 44.5319 53.5587 44.5186 53.366 44.5176C51.087 44.5086 49.0123 46.3 48.7287 48.5255C48.4685 50.5615 49.8028 52.2522 51.7792 52.5335C51.9621 52.5591 52.1508 52.5733 52.3435 52.5738C54.623 52.5843 56.6982 50.7886 56.9798 48.5659C57.2411 46.5285 55.9048 44.8393 53.9284 44.5585ZM53.8194 45.2938C55.4198 45.5209 56.4316 46.8586 56.2249 48.4742C55.9889 50.334 54.2499 51.8394 52.3449 51.8309C52.1941 51.8309 52.0404 51.8194 51.8887 51.7976C50.2887 51.5705 49.2769 50.2323 49.4836 48.6167C49.7206 46.7579 51.4606 45.252 53.3621 45.2601C53.5193 45.2615 53.673 45.2725 53.8194 45.2938Z" fill="#F0536C"/>
<path d="M64.7167 41.2021C64.5333 41.1755 64.3446 41.1626 64.1519 41.1612C61.8729 41.1498 59.7963 42.944 59.5136 45.1681C59.2543 47.2028 60.5891 48.893 62.5646 49.1737C62.7475 49.1999 62.9363 49.2141 63.1299 49.215C65.4074 49.2269 67.4851 47.435 67.7677 45.2091C68.026 43.1744 66.6931 41.4828 64.7167 41.2021ZM64.6067 41.937C66.2057 42.1645 67.218 43.5017 67.0127 45.1169C66.7763 46.9776 65.0363 48.4821 63.1338 48.4726C62.9801 48.4716 62.8254 48.4598 62.674 48.4383C61.0752 48.2113 60.0633 46.8735 60.2686 45.2594C60.505 43.3992 62.2451 41.8952 64.1446 41.9047C64.3081 41.9056 64.4627 41.9165 64.6067 41.937Z" fill="#F0536C"/>
<path d="M67.8043 26.9725C67.6213 26.9465 67.4331 26.9331 67.2394 26.9317C64.9609 26.9213 62.8847 28.715 62.6031 30.9386C62.3414 32.9742 63.6743 34.6653 65.6507 34.9466C65.8351 34.9727 66.0233 34.9869 66.2174 34.9874C68.4945 34.9993 70.5755 33.205 70.8552 30.9809C71.1124 28.9458 69.7792 27.2533 67.8043 26.9725ZM67.6948 27.7079C69.2932 27.9345 70.3046 29.2742 70.1002 30.8911C69.8663 32.7495 68.1262 34.2545 66.2193 34.2454C66.0671 34.2445 65.9129 34.2326 65.7607 34.2112C64.1607 33.9841 63.1504 32.6464 63.358 31.0299C63.5935 29.171 65.333 27.6656 67.2355 27.6747C67.3927 27.6761 67.5469 27.687 67.6948 27.7079Z" fill="#F0536C"/>
<path d="M64.6378 6.04846C64.4807 6.02661 64.3197 6.01473 64.1543 6.01568C62.2936 6.02043 60.6091 7.49872 60.3936 9.31485C60.1946 10.9685 61.2823 12.337 62.8832 12.5646C63.0413 12.5869 63.2033 12.5978 63.3706 12.5978C65.2304 12.5941 66.9178 11.1143 67.1314 9.29821C67.3274 7.64412 66.2392 6.27648 64.6378 6.04846ZM64.5284 6.78382C65.745 6.95672 66.5219 7.97805 66.3754 9.21272C66.2047 10.6663 64.8553 11.852 63.3687 11.8549C63.2407 11.8549 63.1138 11.8463 62.9922 11.8292C61.776 11.6563 61.0006 10.635 61.1495 9.40035C61.3217 7.94816 62.6706 6.76292 64.1582 6.75864C64.2803 6.75769 64.4048 6.76625 64.5284 6.78382Z" fill="#F0536C"/>
<path d="M70.7971 0.0438316C70.6906 0.0291053 70.5807 0.0215047 70.4683 0.0205546C69.151 0.012479 67.9499 1.05092 67.7874 2.33685C67.6361 3.51304 68.4096 4.49115 69.5518 4.65409C69.6568 4.66834 69.7653 4.67689 69.8762 4.67784C71.1945 4.68211 72.3958 3.64558 72.5577 2.36012C72.7075 1.18298 71.9371 0.20582 70.7971 0.0438316ZM70.6877 0.779666C71.4302 0.884649 71.8988 1.51123 71.803 2.26892C71.6886 3.17481 70.8078 3.93773 69.8836 3.9344C69.8077 3.93393 69.7328 3.9287 69.6613 3.91872C68.916 3.81231 68.4451 3.18622 68.5424 2.42758C68.6577 1.51931 69.5367 0.75829 70.4639 0.763989C70.5427 0.764468 70.6176 0.769217 70.6877 0.779666Z" fill="#F0536C"/>
<path d="M69.9457 12.5101C69.7633 12.484 69.577 12.4703 69.3844 12.4688C67.1049 12.457 65.0282 14.253 64.746 16.4796C64.6638 17.1128 64.7539 17.7075 64.9538 18.2425C64.8988 18.2343 64.8433 18.2253 64.7879 18.2182C64.6454 18.1973 64.5009 18.1807 64.3486 18.1807C62.0691 18.1674 59.9935 19.964 59.7108 22.1876C59.452 24.2208 60.7849 25.9124 62.7594 26.1931C62.9428 26.2188 63.1315 26.2336 63.3252 26.234C65.6042 26.2445 67.6833 24.4512 67.9634 22.228C68.0452 21.5929 67.9552 20.9977 67.7528 20.4614C67.817 20.4714 67.8822 20.4813 67.9469 20.4913C68.0812 20.5098 68.2193 20.525 68.3618 20.525C70.6394 20.5374 72.7192 18.7422 72.999 16.5194C73.2553 14.4821 71.9219 12.7909 69.9457 12.5101ZM69.8363 13.2455C71.4348 13.4721 72.4473 14.8112 72.2435 16.4283C72.0099 18.2871 70.2702 19.792 68.3638 19.782C68.2796 19.782 68.1877 19.774 68.0564 19.7559C67.9946 19.7469 67.9318 19.7374 67.871 19.7279C67.8681 19.727 67.8657 19.727 67.8623 19.7265C67.5986 19.689 67.334 19.7891 67.1647 19.9901C66.9935 20.1944 66.9458 20.4718 67.0392 20.7188C67.2129 21.1796 67.2697 21.6561 67.2085 22.1368C66.9745 23.9957 65.234 25.5001 63.3271 25.491C63.1753 25.4906 63.0211 25.4792 62.8688 25.4573C61.2709 25.2308 60.26 23.894 60.4658 22.2788C60.7027 20.4176 62.4422 18.9127 64.3472 18.9236C64.461 18.9236 64.5783 18.9384 64.6785 18.9536C64.7305 18.9602 64.782 18.9688 64.8341 18.9764C64.8375 18.9769 64.8409 18.9774 64.8443 18.9778C65.107 19.0149 65.3716 18.9156 65.5409 18.7151C65.7127 18.5122 65.7608 18.2353 65.6689 17.9874C65.4962 17.5247 65.4392 17.0482 65.501 16.5699C65.737 14.7082 67.477 13.2023 69.3805 13.2122C69.5351 13.2132 69.684 13.2242 69.8363 13.2455Z" fill="#F0536C"/>
<path d="M56.7828 0.011876L52.2413 0L53.1471 12.9296C53.1481 13.2465 53.1534 13.4921 53.1661 13.6365C52.4393 14.3429 51.9246 15.2597 51.7948 16.2749C51.5938 17.8372 52.3484 19.1821 53.599 19.8557L54.1808 28.8188C54.0879 28.8838 53.9891 28.9441 53.904 29.0192C53.8403 27.2758 52.5925 25.9001 50.8243 25.6483C50.6414 25.6222 50.4541 25.6089 50.2605 25.6079C47.9824 25.5956 45.9058 27.3908 45.6241 29.6144C45.3639 31.6505 46.7016 33.3421 48.6785 33.6228C48.861 33.6489 49.0488 33.6623 49.2414 33.6632C50.3782 33.6665 51.465 33.2209 52.3046 32.4975C52.3581 33.9805 53.2702 35.1928 54.6269 35.6778L54.6609 36.2013C53.8597 36.9177 53.292 37.883 53.1539 38.9594C52.8961 40.9973 54.2294 42.6861 56.2044 42.9668C56.3883 42.9925 56.577 43.0067 56.7716 43.0077C59.0526 43.0191 61.1273 41.2254 61.4104 39.0003C61.6327 37.2493 60.6696 35.7605 59.1367 35.1976L59.1012 34.6398C59.8888 33.9282 60.4473 32.9744 60.5844 31.9032C60.7892 30.3018 59.9939 28.9223 58.6868 28.2672L58.1108 19.4225C59.1396 18.6895 59.8883 17.5788 60.0479 16.3147C60.2755 14.5215 59.2559 13.0118 57.6614 12.484L56.7828 0.011876ZM56.0721 0.752939L56.9025 12.5344C56.9234 12.8341 57.1262 13.0916 57.4171 13.1876C58.715 13.617 59.469 14.8374 59.2929 16.2245C59.1659 17.2268 58.5715 18.1736 57.6623 18.8225C57.4522 18.9717 57.3349 19.2158 57.3514 19.4695L57.9269 28.3143C57.944 28.576 58.1006 28.8093 58.3389 28.9284C59.4165 29.4691 59.9875 30.573 59.8295 31.8106C59.721 32.6566 59.2793 33.468 58.5846 34.0955C58.4163 34.2466 58.3273 34.4632 58.3419 34.6864L58.3769 35.2436C58.3959 35.5358 58.5885 35.7909 58.8692 35.893C60.1276 36.3552 60.8296 37.539 60.6554 38.9085C60.419 40.7684 58.678 42.2747 56.776 42.2647C56.6179 42.2633 56.4622 42.2524 56.3139 42.231C54.7159 42.0039 53.7046 40.6662 53.9088 39.0516C54.0183 38.1994 54.4678 37.3818 55.1746 36.7491C55.3444 36.5975 55.4344 36.379 55.4203 36.1548L55.3858 35.6313C55.3667 35.3372 55.1717 35.0816 54.8886 34.98C53.8057 34.5933 53.1067 33.6313 53.0649 32.4713C53.0542 32.1839 52.8752 31.9284 52.6047 31.8153C52.5429 31.7891 52.4787 31.7716 52.4135 31.7626C52.1961 31.7312 51.9708 31.7939 51.8006 31.9412C51.0646 32.5753 50.1564 32.9226 49.2453 32.9197C49.0887 32.9188 48.9349 32.9084 48.7885 32.8879C47.1862 32.6604 46.1729 31.3217 46.3791 29.7052C46.6145 27.8454 48.3541 26.3414 50.2596 26.3504C50.4103 26.3513 50.5636 26.3623 50.7148 26.3837C52.1168 26.5832 53.0926 27.6525 53.1437 29.0458C53.1539 29.3346 53.3349 29.5907 53.6068 29.7033C53.6676 29.7285 53.7308 29.7455 53.7945 29.7546C54.0149 29.7864 54.2421 29.7218 54.4128 29.5722C54.4396 29.5484 54.4877 29.5156 54.5383 29.4814L54.6249 29.4221C54.8375 29.2733 54.9572 29.0268 54.9401 28.7713L54.3579 19.8092C54.3413 19.556 54.1939 19.3279 53.9663 19.2054C52.9389 18.6519 52.3955 17.5641 52.5492 16.3675C52.6514 15.5704 53.0615 14.7866 53.7031 14.1623C53.8617 14.008 53.9429 13.7928 53.9245 13.5742C53.9176 13.4959 53.9093 13.3206 53.9084 12.9272C53.9084 12.9116 53.9074 12.8949 53.9064 12.8788L53.0556 0.744862L56.0721 0.752939Z" fill="#F0536C"/>
<path d="M29.2823 66.2725H29.2789L26.3285 66.2729H26.3037C24.2266 66.2729 22.6218 66.8088 21.5345 67.8657C20.3627 69.0024 20.1447 70.5969 19.8928 72.4427L19.8796 72.537L13.9187 112.486C13.6292 114.419 14.5603 115.23 15.1412 115.542C15.6757 115.829 16.3412 115.971 17.174 115.974L24.3409 115.996C25.2675 115.996 25.9481 115.848 26.4896 115.53C27.5451 114.911 27.8 113.943 27.8997 113.27L30.4293 96.2292L32.6757 102.332L32.6855 102.359L32.6961 102.385C33.3101 103.91 34.7869 106.47 37.7786 106.479L41.3336 106.488C44.404 106.464 45.9217 104.351 47.0299 102.809L47.059 102.768L47.0863 102.726L50.707 97.0793L48.4085 112.499C48.3345 112.993 48.1079 114.504 49.4324 115.432C50.1222 115.917 50.9492 115.985 51.6662 115.987L58.7937 115.989C59.769 115.988 60.4476 115.846 60.9959 115.528C62.0092 114.941 62.2825 113.837 62.3997 113.057L68.4546 72.4288C68.6677 70.8812 68.7046 69.1374 67.3863 67.784C66.4076 66.7921 64.9239 66.2919 62.9665 66.2872L60.1086 66.2743H60.0672C58.2795 66.2743 56.8999 66.6154 55.8487 67.318C54.8865 67.9588 53.9939 68.9664 53.1222 70.3965L41.5024 89.4322L35.0792 70.6801C34.6172 69.2115 34.0149 68.1597 33.2385 67.4662C32.3537 66.6705 31.0592 66.2786 29.2857 66.2725H29.2823ZM29.2793 68.1726C30.53 68.1769 31.4124 68.4073 31.9251 68.8685C32.4378 69.3265 32.8713 70.1247 33.2264 71.2605L41.0018 93.9626L54.7941 71.3686C55.5116 70.1913 56.2296 69.3648 56.9476 68.8861C57.6579 68.4116 58.6974 68.1745 60.0672 68.1745H60.0993L62.9621 68.1873C64.3918 68.1907 65.3938 68.5027 65.9761 69.0927C66.5536 69.6858 66.7568 70.4991 66.5292 72.1556L60.4749 112.78C60.3824 113.393 60.2253 113.765 60.0016 113.894C59.7778 114.024 59.376 114.088 58.7937 114.088L51.672 114.087C51.1788 114.085 50.7925 114.047 50.5664 113.888C50.2964 113.699 50.2424 113.384 50.3343 112.773L53.9146 88.7492L53.9623 88.4219L45.4367 101.717C44.2503 103.37 43.2662 104.573 41.3389 104.588L37.7854 104.579C36.669 104.575 35.4164 103.948 34.5067 101.689L29.6223 88.4199L25.9744 112.998C25.8834 113.609 25.7112 113.77 25.4874 113.902C25.2637 114.033 24.8838 114.096 24.3467 114.096L17.1818 114.074C16.69 114.072 16.3208 114.006 16.0775 113.876C15.831 113.744 15.7526 113.371 15.8441 112.76L21.8085 72.7879C22.0351 71.1308 22.1898 69.9077 22.9073 69.212C23.6195 68.5199 24.7519 68.173 26.3037 68.173H26.3285L29.2793 68.1726Z" fill="#99CB4E"/>
<path d="M83.3195 94.5365L86.9044 86.1641L87.9304 94.549L83.3195 94.5365ZM90.8954 66.2725H90.8841L87.3404 66.2962L87.3141 66.2967L87.2885 66.2977C85.5816 66.3527 84.261 66.6601 83.2492 67.2364C82.1189 67.881 81.1561 69.1013 80.3062 70.967L60.7833 111.963L60.7537 112.025L60.7284 112.09C60.3611 113.035 60.4691 113.793 60.6248 114.263C60.7625 114.671 61.3486 115.964 63.2681 115.975L71.164 115.984C72.2702 115.984 73.0981 115.748 73.7066 115.263C74.1702 114.895 74.5685 114.381 74.9207 113.695L74.9413 113.655L74.9597 113.615L78.2202 106.444L89.6408 106.473L90.7236 113.322L90.7265 113.343L90.73 113.363C91.0097 114.906 91.9654 115.483 92.5107 115.69C93.0241 115.887 93.6411 115.984 94.388 115.984L101.98 115.99C103.297 115.99 104.317 115.353 104.717 114.286C104.94 113.678 105.006 113.083 104.918 112.503L104.914 112.474L104.908 112.444L97.2984 71.462C97.1344 70.5045 96.9143 69.7335 96.626 69.1076C96.2639 68.3322 95.7718 67.7133 95.1591 67.2582C94.5258 66.7931 93.7923 66.5043 92.9708 66.3941C92.4049 66.3171 91.729 66.2768 90.9075 66.2725H90.8954ZM90.1229 96.4551L87.9595 78.7729L80.4006 96.4294L90.1229 96.4551ZM90.8968 68.1726C91.6125 68.1764 92.2139 68.2097 92.706 68.2767C93.2002 68.3432 93.6226 68.5075 93.9812 68.7707C94.3355 69.0343 94.6259 69.4048 94.8517 69.8874C95.0725 70.3679 95.2471 71.0002 95.3813 71.7872L102.993 112.783C103.033 113.045 103.001 113.328 102.889 113.633C102.775 113.937 102.477 114.089 101.989 114.089H101.981L94.388 114.085C93.8946 114.085 93.5062 114.03 93.2136 113.917C92.9247 113.808 92.7337 113.515 92.6463 113.032L91.3094 104.577L76.957 104.54L73.1811 112.844C72.9568 113.281 72.7203 113.597 72.4754 113.791C72.2297 113.987 71.798 114.084 71.1753 114.084H71.1668L63.2808 114.076C62.8357 114.073 62.5657 113.944 62.4763 113.68C62.3901 113.418 62.4125 113.112 62.5477 112.764L82.0777 71.7532C82.7508 70.2701 83.4693 69.3113 84.2305 68.8776C84.9923 68.4435 86.0567 68.2387 87.3531 68.1964L90.8968 68.1726Z" fill="#99CB4E"/>
<path d="M178.671 94.5316L182.255 86.1586L183.281 94.5434L178.671 94.5316ZM186.243 66.2676H186.232L182.689 66.2914H182.663L182.637 66.2923C180.931 66.3474 179.61 66.6543 178.6 67.2305C177.469 67.876 176.507 69.0955 175.656 70.9593L156.132 111.957L156.1 112.025L156.073 112.094C155.78 112.86 155.749 113.594 155.979 114.272C156.115 114.67 156.704 115.961 158.62 115.97L166.514 115.977C167.621 115.977 168.445 115.742 169.053 115.258C169.512 114.896 169.911 114.384 170.267 113.699L170.29 113.655L170.311 113.61L173.572 106.438L184.99 106.467L186.073 113.316L186.077 113.336L186.08 113.356C186.359 114.903 187.317 115.48 187.863 115.685C188.372 115.881 188.987 115.979 189.731 115.979L197.328 115.984C198.652 115.984 199.671 115.345 200.067 114.275C200.289 113.68 200.356 113.081 200.267 112.498L200.262 112.468L200.257 112.439L192.647 71.4544C192.483 70.5024 192.265 69.7348 191.978 69.1074C191.614 68.3269 191.122 67.7084 190.509 67.2528C189.868 66.7839 189.134 66.4965 188.318 66.3892C187.75 66.3108 187.072 66.2709 186.254 66.2676H186.243ZM185.473 96.4495L183.31 78.7666L175.751 96.4238L185.473 96.4495ZM186.246 68.1677C186.963 68.1706 187.564 68.2044 188.057 68.2722C188.551 68.3369 188.971 68.5022 189.331 68.7654C189.687 69.029 189.976 69.3992 190.201 69.8811C190.421 70.363 190.596 70.9947 190.73 71.7802L198.342 112.778C198.382 113.04 198.351 113.323 198.238 113.628C198.125 113.931 197.827 114.084 197.341 114.084H197.33L189.738 114.079H189.731C189.241 114.079 188.853 114.024 188.564 113.913C188.274 113.803 188.083 113.508 187.997 113.026L186.659 104.572L172.309 104.535L168.533 112.838C168.305 113.275 168.069 113.591 167.824 113.785C167.581 113.978 167.151 114.078 166.533 114.078H166.516L158.63 114.07C158.184 114.068 157.916 113.938 157.826 113.675C157.737 113.413 157.762 113.109 157.896 112.758L177.427 71.7463C178.102 70.2652 178.819 69.3064 179.58 68.8713C180.341 68.4376 181.408 68.2333 182.702 68.1915L186.246 68.1677Z" fill="#99CB4E"/>
<path d="M115.94 66.2783C113.838 66.2783 112.223 66.7966 111.142 67.8184C110.092 68.8056 109.439 70.334 109.149 72.4883L103.193 112.421C102.926 114.035 103.654 114.893 104.113 115.261C104.705 115.738 105.489 115.985 106.439 115.993L113.568 116C114.288 115.999 115.33 115.923 116.094 115.268L116.104 115.259L116.115 115.25C116.84 114.609 117.063 113.673 117.169 113.024L117.171 113.012L117.173 113L120.579 90.1386L130.32 111.957C130.628 112.667 130.932 113.244 131.24 113.707C131.613 114.28 132.093 114.766 132.656 115.136C133.225 115.509 133.869 115.754 134.57 115.863C135.144 115.953 135.672 115.991 136.389 115.995L139.399 115.993C141.671 115.993 143.273 115.365 144.32 114.071C145.174 113.013 145.75 111.606 146.031 109.891L146.033 109.877L146.035 109.863L151.978 70.0047C152.119 69.053 151.856 68.1448 151.237 67.4455C150.586 66.7083 149.588 66.284 148.502 66.2817L141.683 66.2883H141.652C140.935 66.2883 139.891 66.3686 139.106 67.0617C138.547 67.5477 138.187 68.2611 138.019 69.2326L138.015 69.254L138.012 69.2754L134.595 92.2007L124.741 70.3375L124.723 70.2966L124.703 70.2571C124.375 69.615 124.071 69.063 123.796 68.617C123.405 67.9937 122.949 67.4997 122.43 67.1353C121.862 66.741 121.216 66.4864 120.499 66.3724C119.906 66.2798 119.401 66.2793 118.702 66.2783H115.982H115.94ZM115.94 68.1785H115.982H118.699C119.371 68.1795 119.762 68.1818 120.185 68.2478C120.609 68.3153 120.977 68.4578 121.293 68.6773C121.605 68.8967 121.881 69.2013 122.128 69.5949C122.37 69.9894 122.649 70.4914 122.96 71.103L135.544 99.0241L135.57 98.8473L139.938 69.5491C140.028 69.0236 140.186 68.6659 140.41 68.4711C140.629 68.2778 141.043 68.1885 141.652 68.1885H141.685L148.497 68.1818C149.48 68.1842 150.188 68.8151 150.052 69.7308L144.11 109.59C143.88 110.989 143.442 112.088 142.792 112.893C142.144 113.695 141.108 114.093 139.421 114.093H139.397L136.399 114.095C135.729 114.091 135.302 114.053 134.877 113.987C134.453 113.92 134.073 113.776 133.74 113.558C133.405 113.338 133.113 113.043 132.871 112.67C132.624 112.301 132.369 111.808 132.105 111.198L119.637 83.2715L115.247 112.727C115.155 113.295 115.008 113.665 114.81 113.84C114.608 114.013 114.195 114.099 113.569 114.1L106.454 114.092C105.963 114.089 105.593 113.99 105.348 113.793C105.103 113.597 105.027 113.235 105.117 112.712L111.076 72.7476C111.304 71.0454 111.777 69.8584 112.495 69.1837C113.205 68.5134 114.355 68.1785 115.94 68.1785Z" fill="#99CB4E"/>
<path d="M153.824 66.2822C152.88 66.2822 152.092 66.5065 151.483 66.9492C150.789 67.4585 150.354 68.2209 150.181 69.2213L150.177 69.2427L150.173 69.2645L143.75 112.433C143.477 114.03 144.21 114.892 144.673 115.265C145.273 115.746 146.081 115.991 147.075 115.995L154.119 115.993C155.987 115.993 157.474 114.759 157.74 112.994L164.166 69.8666C164.258 69.3063 164.439 68.1624 163.57 67.2038C162.843 66.4057 161.768 66.3012 160.911 66.2984L153.858 66.2822H153.824ZM153.824 68.1824H153.853L160.906 68.1985C161.533 68.2004 161.945 68.2784 162.113 68.4631C162.332 68.7049 162.336 69.0108 162.243 69.5781L155.814 112.718C155.671 113.675 154.9 114.093 154.124 114.093H154.119L147.083 114.095C146.546 114.093 146.155 113.994 145.91 113.798C145.665 113.601 145.579 113.251 145.672 112.728L152.099 69.5379C152.19 69.0137 152.379 68.6684 152.645 68.4731C152.909 68.2807 153.304 68.1824 153.824 68.1824Z" fill="#99CB4E"/>
</g>
<defs>
<clipPath id="clip0_232_604">
<rect width="214" height="116" fill="white"/>
</clipPath>
</defs>
</svg>
