<svg width="71" height="64" viewBox="0 0 71 64" fill="none" xmlns="http://www.w3.org/2000/svg">
<path d="M7.436 0.899999V2.109H4.511V10H3.276V2.109H0.351V0.899999H7.436ZM11.5912 2.109C11.0452 2.109 10.5946 2.265 10.2392 2.577C9.88389 2.889 9.70623 3.28333 9.70623 3.76C9.70623 4.23667 9.88389 4.63967 10.2392 4.969C10.6032 5.28967 11.0539 5.45 11.5912 5.45H14.2432V2.109H11.5912ZM11.0452 6.555C10.2912 6.49433 9.66289 6.204 9.16023 5.684C8.66623 5.15533 8.41923 4.52267 8.41923 3.786C8.41923 2.93667 8.70523 2.24333 9.27723 1.706C9.84923 1.16867 10.5772 0.899999 11.4612 0.899999H15.4782V10H14.2432V6.646H12.4492L9.88823 10H8.41923L11.0452 6.555ZM16.7622 10V0.899999H17.9972V4.826H23.0022V0.899999H24.2372V10H23.0022V6.048H17.9972V10H16.7622ZM33.162 10H31.927V2.746L27.143 10H25.687V0.899999H26.922V8.076L31.719 0.899999H33.162V10ZM42.4837 2.109H39.3507V4.852H42.5617C42.9517 4.852 43.2767 4.709 43.5367 4.423C43.8054 4.12833 43.9397 3.76867 43.9397 3.344C43.9397 2.98867 43.801 2.694 43.5237 2.46C43.2464 2.226 42.8997 2.109 42.4837 2.109ZM42.5617 6.022H39.3507V8.791H42.6137C43.0297 8.791 43.3764 8.66967 43.6537 8.427C43.931 8.17567 44.0697 7.87233 44.0697 7.517C44.0697 7.08367 43.9267 6.72833 43.6407 6.451C43.3547 6.165 42.995 6.022 42.5617 6.022ZM42.7567 10H38.1157V0.899999H42.6267C43.3634 0.899999 43.97 1.121 44.4467 1.563C44.932 1.99633 45.1747 2.54667 45.1747 3.214C45.1747 3.682 45.062 4.111 44.8367 4.501C44.62 4.891 44.321 5.19 43.9397 5.398C44.3644 5.61467 44.698 5.92233 44.9407 6.321C45.1834 6.711 45.3047 7.14867 45.3047 7.634C45.3047 8.31 45.062 8.87333 44.5767 9.324C44.0914 9.77467 43.4847 10 42.7567 10ZM46.5835 10V0.899999H47.8185V4.826H52.8235V0.899999H54.0585V10H52.8235V6.048H47.8185V10H46.5835ZM62.9833 10H61.7483V2.746L56.9643 10H55.5083V0.899999H56.7433V8.076L61.5403 0.899999H62.9833V10ZM64.4201 2.577C64.6801 1.98767 65.0657 1.524 65.5771 1.186C66.0971 0.839333 66.6777 0.665999 67.3191 0.665999C68.1164 0.665999 68.7837 0.908666 69.3211 1.394C69.8671 1.87933 70.1401 2.48167 70.1401 3.201C70.1401 3.63433 70.0317 4.033 69.8151 4.397C69.6071 4.761 69.3211 5.047 68.9571 5.255C69.3991 5.48033 69.7501 5.801 70.0101 6.217C70.2701 6.633 70.4001 7.088 70.4001 7.582C70.4001 8.336 70.1054 8.96867 69.5161 9.48C68.9354 9.98267 68.2074 10.234 67.3321 10.234C66.6301 10.234 65.9974 10.0607 65.4341 9.714C64.8794 9.35867 64.4591 8.87333 64.1731 8.258L65.3301 7.66C65.5034 8.09333 65.7677 8.43567 66.1231 8.687C66.4784 8.92967 66.8814 9.051 67.3321 9.051C67.8521 9.051 68.2854 8.89933 68.6321 8.596C68.9874 8.284 69.1651 7.89833 69.1651 7.439C69.1651 7.00567 69.0047 6.64167 68.6841 6.347C68.3721 6.05233 67.9864 5.905 67.5271 5.905H66.3311V4.735H67.5271C67.9171 4.735 68.2421 4.605 68.5021 4.345C68.7707 4.07633 68.9051 3.747 68.9051 3.357C68.9051 2.93233 68.7491 2.577 68.4371 2.291C68.1337 1.99633 67.7524 1.849 67.2931 1.849C66.9031 1.849 66.5521 1.96167 66.2401 2.187C65.9367 2.40367 65.7071 2.707 65.5511 3.097L64.4201 2.577Z" fill="white"/>
<path d="M54.6999 52.5757L36.6421 62L17 52.5757" stroke="white" stroke-width="2" stroke-miterlimit="10"/>
<path d="M27.9482 20.722C27.5439 21.8965 26.9915 23.0169 26.3038 24.0569C26.5444 25.0406 26.8553 25.6112 27.2062 25.6407C27.5571 25.6702 27.5772 25.0013 27.6474 23.8798C27.8352 24.066 28.0518 24.222 28.2891 24.3422C28.0585 26.1719 27.6273 26.654 27.1962 26.6441C26.5344 26.6441 26.0331 25.985 25.6922 24.8931C25.1992 25.5472 24.6115 26.1272 23.9476 26.6146C23.769 26.4121 23.5671 26.2306 23.346 26.0736H19.0746V26.6146H18.2825V22.6796C18.092 22.9059 17.9216 23.1322 17.7311 23.3191C17.5766 23.091 17.4057 22.874 17.2197 22.6698C17.9324 21.9485 18.5095 21.1092 18.9242 20.1908H18.7939C18.754 19.988 18.683 19.7923 18.5833 19.6103H19.4757C19.596 19.6103 19.6161 19.6104 19.6161 19.4628V17.1018H17.4604V16.4427H20.2879V19.5415C20.2879 19.8858 20.2277 20.0235 19.977 20.1317C19.6818 20.221 19.3733 20.2609 19.0646 20.2498L19.6462 20.4367C19.5359 20.663 19.4155 20.9089 19.2852 21.145H20.8694C20.7691 20.8892 20.6388 20.6039 20.5285 20.3777L21.2905 20.1219C21.4738 20.4401 21.6378 20.7686 21.7818 21.1056H23.5766V21.7549H21.5913V22.5616H23.2958V23.142H21.5913V23.9388H23.2958V24.5192H21.5913V25.4046H23.5164V25.8965C24.2666 25.3519 24.9175 24.6867 25.4415 23.929C25.1922 22.6485 25.0248 21.354 24.9402 20.053L23.8373 20.2104L23.727 19.4726L24.8901 19.3152C24.8199 18.2725 24.7798 17.1608 24.7497 16H25.5719C25.5719 17.1116 25.632 18.1839 25.6922 19.1972L28.1286 18.843L28.2289 19.5907L25.7423 19.9448C25.8426 21.0663 25.9529 22.0796 26.0932 22.8961C26.5896 22.0954 26.9964 21.2444 27.3065 20.358L27.9482 20.722ZM17.4102 19.3447C17.9316 19.1086 18.6034 18.725 19.3353 18.361L19.4958 18.9119L17.6509 19.9547L17.4102 19.3447ZM17.9316 17.2297C18.3705 17.4178 18.7959 17.6347 19.205 17.879L18.9142 18.42C18.5065 18.1531 18.0811 17.9132 17.6408 17.7019L17.9316 17.2297ZM20.7992 21.7943H19.0746V22.6009H20.7992V21.7943ZM20.7992 23.1814H19.0746V23.9782H20.7992V23.1814ZM19.0746 25.444H20.7992V24.5586H19.0746V25.444ZM22.7043 18.8725C22.0626 19.2365 21.4509 19.6104 20.8694 19.9547L20.6187 19.3447C21.1301 19.0988 21.8019 18.7151 22.5338 18.3118L22.7043 18.8725ZM22.8747 17.1018H20.6689V16.4427H23.5966V19.5415C23.5966 19.8956 23.5365 20.0629 23.2658 20.1809C22.8516 20.2933 22.4206 20.3333 21.9924 20.299C21.9546 20.0812 21.8872 19.8695 21.7918 19.6694H22.7143C22.8446 19.6694 22.8747 19.6694 22.8747 19.5218V17.1018ZM22.0926 18.4299C21.8019 18.2233 21.2604 17.8888 20.8493 17.6625L21.1702 17.21C21.5968 17.4117 22.0089 17.6418 22.4035 17.8986L22.0926 18.4299ZM27.1661 18.5479C26.8451 17.8869 26.4445 17.266 25.9729 16.6985L26.6247 16.3541C27.1079 16.9014 27.5189 17.5062 27.8479 18.1544L27.1661 18.5479Z" fill="white"/>
<path d="M41.6545 20.8005V21.7843H30.7656V20.8005H41.6545Z" fill="white"/>
<path d="M49.9263 17.7609V19.8366L50.0868 19.6595C51.5803 20.376 53.015 21.2048 54.3781 22.1385L53.7465 22.955C52.5459 22.0535 51.2715 21.2507 49.9364 20.5547V26.713H48.9939V17.7609H44.3516V16.8755H54.9998V17.7609H49.9263Z" fill="white"/>
</svg>
