<svg width="24" height="32" viewBox="0 0 24 32" fill="none" xmlns="http://www.w3.org/2000/svg">
<path d="M6.998 1.24812e-06C6.72767 -0.000107814 6.45675 0.0102302 6.27876 0.0309945C5.47574 0.124672 4.74984 0.326675 4.06934 0.650008L8.91032 5.41669L12.1109 2.26315L12.1108 2.26198L12.1 2.27241L11.7985 1.98197C11.4606 1.65625 11.2105 1.44549 10.9104 1.23377C9.96263 0.565293 8.92675 0.175654 7.714 0.0315258C7.53816 0.0106262 7.26834 0.000103221 6.998 1.24812e-06Z" fill="white"/>
<path d="M3.95843 0.758789L3.79781 0.838242C3.1553 1.15601 2.4308 1.69449 1.94985 2.21174C1.50409 2.69115 1.22419 3.07591 0.916411 3.63243L0.770508 3.90146L5.61104 8.66496L8.79941 5.52547C8.79941 5.52547 3.95951 0.759854 3.95843 0.758789Z" fill="white"/>
<path d="M0.660057 4.01172L0.555793 4.25232C0.306671 4.82757 0.141311 5.43283 0.0561102 6.08102C0.0160389 6.38588 0.010332 7.30179 0.0466997 7.59043C0.2145 8.92221 0.686114 10.0306 1.51947 11.0461L2.09973 11.6755C2.16921 11.745 2.23206 11.808 2.32459 11.9001L5.49899 8.7768C5.51229 8.7637 0.660057 4.01172 0.660057 4.01172Z" fill="white"/>
<path d="M23.3555 4.29492C23.3509 4.29492 21.3905 6.22105 18.9432 8.62769L8.96191 18.4862C10.5223 20.0211 11.8112 21.2807 11.8346 21.2924C11.8589 21.3047 11.9106 21.325 11.9496 21.3377C11.99 21.3508 12.0709 21.3581 12.1373 21.3546C12.3741 21.3423 11.9928 21.703 17.3392 16.4353C20.0202 13.7938 22.2847 11.5501 22.3714 11.4494C22.7722 10.9833 23.1036 10.4811 23.3509 9.96488C24.1779 8.2384 24.2167 6.27243 23.4589 4.50868C23.4084 4.39111 23.3619 4.29492 23.3555 4.29492Z" fill="white"/>
<path d="M20.0235 1.01855L5.63867 15.2271C5.63873 15.2271 5.64427 15.2325 5.6443 15.2325C10.433 10.4861 20.0417 1.03091 20.0417 1.03091C20.0379 1.02745 20.0311 1.02312 20.0235 1.01855ZM20.0776 1.04667C20.0776 1.04667 5.66205 15.2412 5.66214 15.2412C6.71645 16.2794 7.79553 17.3397 8.84984 18.378L23.2434 4.18668L23.1662 4.02224C22.5545 2.82136 21.5255 1.79278 20.308 1.16532L20.0776 1.04667Z" fill="white"/>
<path d="M3.96242 13.5657L2.38086 12.0082C5.55526 8.88491 11.4437 3.02173 12.8005 1.78735C13.4826 1.25212 14.1781 0.878457 14.9624 0.625862C15.4232 0.477448 15.8113 0.393798 16.3269 0.331729C16.6455 0.293374 17.4376 0.288496 17.7445 0.323C18.2641 0.381411 18.7603 0.488013 19.2153 0.638944C19.4527 0.717714 19.9062 0.897861 19.9684 0.937349C14.8388 6.06442 11.9054 8.85849 5.54397 15.1232L3.96242 13.5657Z" fill="white"/>
<path d="M14.8934 31.9783C14.318 31.8862 13.8637 31.6508 13.4565 31.2336C13.2437 31.0156 13.1107 30.8244 12.9717 30.5369C12.7411 30.0597 12.6511 29.6317 12.6512 29.0127C12.6514 28.0429 12.9482 27.2837 13.5484 26.7175C13.8982 26.3877 14.2763 26.1936 14.7776 26.0869C14.9353 26.0533 15.0163 26.0472 15.3092 26.0472C15.6021 26.0472 15.6831 26.0533 15.8408 26.0869C16.1869 26.1606 16.4768 26.2786 16.7534 26.4583C16.9478 26.5847 17.3106 26.945 17.4428 27.143C17.7023 27.5316 17.9021 28.0823 17.944 28.5244L17.9543 28.6328L17.8943 28.6513C17.8613 28.6615 17.4077 28.8072 16.8863 28.9751C16.3649 29.143 15.5039 29.4187 14.973 29.5878C14.4422 29.7569 14.0051 29.8979 14.0019 29.9011C13.9925 29.9103 14.0816 30.1177 14.1293 30.1978C14.3107 30.5026 14.5554 30.6907 14.8963 30.7873C15.0129 30.8203 15.0775 30.8264 15.3092 30.8264C15.5409 30.8264 15.6055 30.8203 15.7221 30.7873C16.1846 30.6563 16.5014 30.3259 16.6419 29.8281C16.668 29.7359 16.6914 29.6842 16.7073 29.6842C16.7397 29.684 17.8682 29.8773 17.8752 29.8842C17.8844 29.8933 17.8274 30.0945 17.7702 30.2554C17.692 30.475 17.5065 30.8214 17.375 30.9931C16.9897 31.4967 16.4738 31.8223 15.8497 31.9559C15.6339 32.0021 15.1178 32.0142 14.8934 31.9783ZM16.5494 27.9648C16.5495 27.955 16.5204 27.8983 16.4847 27.8389C16.243 27.4366 15.8942 27.237 15.3889 27.2118C14.9643 27.1906 14.617 27.3064 14.359 27.5551C14.0834 27.821 13.9421 28.1704 13.8837 28.7307C13.8755 28.8094 13.8783 28.8312 13.8956 28.8252C14.814 28.4873 15.5952 28.3645 16.5494 27.9648ZM20.7937 31.994C20.1444 31.8973 19.6963 31.6854 19.2872 31.2815C18.7505 30.7515 18.4659 30.0445 18.4337 29.1605C18.3758 27.5756 19.2067 26.3742 20.56 26.086C20.8221 26.0302 21.3677 26.0302 21.6299 26.086C22.5567 26.2834 23.2417 26.8987 23.5661 27.8252C23.6346 28.0211 23.7093 28.3404 23.7337 28.5422L23.7445 28.6306L23.3057 28.7712C21.5497 29.3341 20.7776 29.5813 20.3181 29.7278L19.7894 29.8964L19.8007 29.9429C19.8187 30.0165 19.909 30.1991 19.9723 30.2901C20.2235 30.6509 20.6031 30.8353 21.0949 30.8353C21.6161 30.8353 22.0153 30.6253 22.2576 30.2237C22.3297 30.1043 22.4505 29.7982 22.4505 29.7351C22.4505 29.716 22.4616 29.6962 22.4752 29.6911C22.4888 29.6859 22.7559 29.7254 23.0687 29.7788C23.3815 29.8323 23.645 29.876 23.6542 29.876C23.6634 29.876 23.656 29.929 23.6378 29.9938C23.4117 30.7958 22.9484 31.3931 22.2977 31.7212C21.9142 31.9145 21.6125 31.9871 21.1569 31.9959C20.9864 31.9992 20.8229 31.9983 20.7937 31.994ZM22.3307 27.9756C22.3509 27.9575 22.1987 27.7153 22.0972 27.6041C21.6122 27.0729 20.5861 27.0716 20.0941 27.6016C19.8985 27.8124 19.7507 28.1525 19.6961 28.5171C19.661 28.7524 19.66 28.8359 19.6926 28.8236C20.6001 28.5068 21.3275 28.3359 22.3307 27.9756ZM1.45185 31.9157C1.21352 31.8891 0.925107 31.7838 0.725317 31.6503C0.608035 31.572 0.395758 31.3657 0.309043 31.2458C0.143943 31.0175 0.0467916 30.7558 0.0163435 30.4575C-0.0109874 28.3538 0.00322181 27.0089 0.00763861 24.6672C0.444741 24.6672 0.881845 24.6672 1.31895 24.6672C1.32485 26.4587 1.33076 28.2502 1.33667 30.0418L1.39364 30.1602C1.51002 30.4021 1.75622 30.5855 2.0189 30.6258C2.92901 30.6523 3.57594 30.6437 4.55292 30.6438V31.9351C4.55292 31.9351 2.47955 32.0016 1.45185 31.9157ZM5.38578 27.084H6.69709V31.9351H5.38578V27.084ZM8.0084 24.6584H9.31954C9.32255 25.867 9.32556 27.0755 9.32857 28.2841C9.88846 27.5641 10.4483 26.8442 11.0082 26.1242H12.7236L12.6124 26.2682C11.8903 27.1979 11.3371 27.9086 10.577 28.8857L10.6256 28.949C11.4304 30.0065 12.0975 30.8053 12.9347 31.927C12.336 31.9393 11.8795 31.9351 11.2343 31.9351L11.1658 31.8497C10.5133 31.0144 10.0179 30.376 9.32857 29.4893L9.32401 30.7122L9.31947 31.9351H8.0084V24.6584ZM5.85095 26.0112C5.70961 25.972 5.61922 25.9201 5.51753 25.82C5.41078 25.7149 5.36107 25.6273 5.32121 25.4742C5.2373 25.1519 5.41773 24.7905 5.73521 24.6449C5.82669 24.603 5.85849 24.5979 6.03257 24.5977C6.21497 24.5974 6.2351 24.6009 6.34586 24.6526C6.51069 24.7295 6.61323 24.8284 6.69293 24.9873C6.75728 25.1156 6.75911 25.1246 6.75911 25.312C6.75911 25.4851 6.75422 25.5151 6.71111 25.6057C6.56091 25.9213 6.17795 26.1018 5.85095 26.0112Z" fill="white"/>
</svg>
