<svg width="27" height="32" viewBox="0 0 27 32" fill="none" xmlns="http://www.w3.org/2000/svg">
<path d="M23.6377 6.84366C23.4274 6.73203 23.2227 6.60966 23.0244 6.47701C22.4476 6.08533 21.9188 5.62382 21.4493 5.10241C20.2747 3.72181 19.836 2.32122 19.6744 1.3406H19.6809C19.5459 0.52664 19.6017 0 19.6101 0H14.26V21.2509C14.26 21.5363 14.26 21.8182 14.2483 22.0969C14.2483 22.1316 14.2451 22.1636 14.2431 22.2009C14.2431 22.2162 14.2431 22.2322 14.2399 22.2482C14.2399 22.2522 14.2399 22.2562 14.2399 22.2602C14.1835 23.0227 13.9455 23.7593 13.547 24.4051C13.1484 25.051 12.6014 25.5863 11.9542 25.964C11.2796 26.3583 10.5166 26.565 9.74053 26.564C7.24782 26.564 5.22756 24.4761 5.22756 21.8976C5.22756 19.319 7.24782 17.2311 9.74053 17.2311C10.2124 17.2307 10.6813 17.307 11.13 17.4571L11.1365 11.8614C9.77451 11.6807 8.39087 11.7919 7.07284 12.188C5.7548 12.584 4.53098 13.2564 3.47857 14.1626C2.55642 14.9857 1.78117 15.9677 1.1877 17.0645C0.961853 17.4645 0.109749 19.0717 0.00656234 21.6803C-0.0583351 23.1608 0.374531 24.6948 0.580905 25.3287V25.3421C0.710699 25.7154 1.21365 26.9893 2.03331 28.0633C2.69425 28.9247 3.47513 29.6815 4.3508 30.3092V30.2958L4.36378 30.3092C6.95383 32.1171 9.82554 31.9984 9.82554 31.9984C10.3227 31.9777 11.9879 31.9984 13.879 31.0778C15.9765 30.0572 17.1706 28.5366 17.1706 28.5366C17.9335 27.628 18.5401 26.5926 18.9644 25.4747C19.4485 24.1675 19.6101 22.5995 19.6101 21.9729V10.6988C19.675 10.7388 20.5395 11.3261 20.5395 11.3261C20.5395 11.3261 21.7848 12.1461 23.7279 12.68C25.1219 13.06 27 13.14 27 13.14V7.68428C26.3419 7.75761 25.0057 7.54429 23.6377 6.84366Z" fill="white"/>
</svg>
